<svg xmlns="http://www.w3.org/2000/svg" xmlns:xlink="http://www.w3.org/1999/xlink" width="500" height="500" viewBox="0 0 132.292 132.292"><defs><linearGradient id="d" x1="129" x2="129" y1="11" y2="245" gradientUnits="userSpaceOnUse"><stop offset="0" style="stop-color:#494949"/><stop offset="1" style="stop-color:#000"/></linearGradient><linearGradient id="c" x1="94.524" x2="157.156" y1="116.933" y2="179.565" gradientTransform="translate(-317.124 488.095)scale(.49587)" gradientUnits="userSpaceOnUse"><stop offset="0" style="stop-color:#093"/><stop offset=".455" style="stop-color:#006a00"/><stop offset="1" style="stop-color:#033"/></linearGradient><linearGradient id="e"><stop offset="0" style="stop-color:#000;stop-opacity:1"/><stop offset="1" style="stop-color:#000;stop-opacity:0"/></linearGradient><linearGradient id="a" x1="139.866" x2="202.497" y1="75.714" y2="138.345" gradientTransform="translate(-317.124 481.745)scale(.49587)" gradientUnits="userSpaceOnUse"><stop offset="0" style="stop-color:#e14e30"/><stop offset=".472" style="stop-color:#ff5b00"/><stop offset="1" style="stop-color:#c51700"/></linearGradient><linearGradient id="b" x1="50.099" x2="112.73" y1="75.943" y2="138.574" gradientTransform="translate(-317.124 481.745)scale(.49587)" gradientUnits="userSpaceOnUse"><stop offset="0" style="stop-color:#900"/><stop offset=".455" style="stop-color:#7c0000"/><stop offset="1" style="stop-color:#600000"/></linearGradient><linearGradient xlink:href="#a" id="g" x1="139.866" x2="202.497" y1="75.714" y2="138.345" gradientTransform="translate(-411.952 501.414)scale(.44463)" gradientUnits="userSpaceOnUse"/><linearGradient xlink:href="#path266_6_" id="h" x1="385.976" x2="498.108" y1="1061.968" y2="1056.065" gradientTransform="translate(-249.29 143.588)scale(.34432)" gradientUnits="userSpaceOnUse"/><linearGradient xlink:href="#b" id="i" x1="50.099" x2="112.73" y1="75.943" y2="138.574" gradientTransform="translate(-411.952 501.414)scale(.44463)" gradientUnits="userSpaceOnUse"/><linearGradient xlink:href="#path266_7_" id="j" x1="152.205" x2="264.341" y1="1062.563" y2="1056.66" gradientTransform="translate(-249.29 143.588)scale(.34432)" gradientUnits="userSpaceOnUse"/><linearGradient xlink:href="#c" id="k" x1="94.524" x2="157.156" y1="116.933" y2="179.565" gradientTransform="translate(-411.952 507.108)scale(.44463)" gradientUnits="userSpaceOnUse"/><linearGradient xlink:href="#path266_8_" id="l" x1="267.897" x2="380.034" y1="1169.309" y2="1163.406" gradientTransform="translate(-249.29 142.264)scale(.34432)" gradientUnits="userSpaceOnUse"/><linearGradient xlink:href="#d" id="m" x1="129" x2="129" y1="11" y2="245" gradientTransform="translate(-25.126 181.827)scale(.20759)" gradientUnits="userSpaceOnUse"/><linearGradient xlink:href="#e" id="n" x1="20.781" x2="20.813" y1="24.594" y2="23.531" gradientTransform="translate(368.857 221.435)scale(.89667)" gradientUnits="userSpaceOnUse"/><linearGradient xlink:href="#d" id="o" x1="129" x2="129" y1="11" y2="245" gradientTransform="translate(-25.126 181.827)scale(.20759)" gradientUnits="userSpaceOnUse"/><linearGradient xlink:href="#e" id="p" x1="20.781" x2="20.813" y1="24.594" y2="23.531" gradientTransform="translate(368.857 221.435)scale(.89667)" gradientUnits="userSpaceOnUse"/><linearGradient xlink:href="#d" id="q" x1="129" x2="129" y1="11" y2="245" gradientTransform="translate(-25.126 181.827)scale(.20759)" gradientUnits="userSpaceOnUse"/><linearGradient xlink:href="#e" id="r" x1="20.781" x2="20.813" y1="24.594" y2="23.531" gradientTransform="translate(368.857 221.435)scale(.89667)" gradientUnits="userSpaceOnUse"/><marker id="t" orient="auto" refX="0" refY="0" style="overflow:visible"><path d="M8.719 4.034-2.207.016 8.719-4.002c-1.746 2.372-1.736 5.618 0 8.036z" style="fill:#a00;fill-opacity:1;fill-rule:evenodd;stroke:#a00;stroke-width:.625;stroke-linejoin:round;stroke-opacity:1" transform="matrix(-.3 0 0 -.3 .69 0)"/></marker><marker id="s" orient="auto" refX="0" refY="0" style="overflow:visible"><path d="M8.719 4.034-2.207.016 8.719-4.002c-1.746 2.372-1.736 5.618 0 8.036z" style="fill:teal;fill-opacity:1;fill-rule:evenodd;stroke:teal;stroke-width:.625;stroke-linejoin:round;stroke-opacity:1" transform="matrix(-.3 0 0 -.3 .69 0)"/></marker><marker id="f" orient="auto" refX="0" refY="0" style="overflow:visible"><path d="M8.719 4.034-2.207.016 8.719-4.002c-1.746 2.372-1.736 5.618 0 8.036z" style="fill:purple;fill-opacity:1;fill-rule:evenodd;stroke:purple;stroke-width:.625;stroke-linejoin:round;stroke-opacity:1" transform="matrix(-.3 0 0 -.3 .69 0)"/></marker></defs><path d="M-284.264 536.314h132.625v132.833h-132.625z" style="opacity:.98000004;fill:#f9f9f9;fill-opacity:1;stroke:none;stroke-width:1;stroke-linejoin:round;stroke-miterlimit:4;stroke-dasharray:none;stroke-opacity:1" transform="translate(284.264 -536.44)"/><path d="m-218.96 551.442-.032 28.978" style="fill:purple;fill-opacity:1;fill-rule:evenodd;stroke:purple;stroke-width:1;stroke-linecap:butt;stroke-linejoin:miter;stroke-miterlimit:4;stroke-dasharray:none;stroke-opacity:1;marker-end:url(#f)" transform="translate(284.032 -532.418)"/><text xml:space="preserve" x="-606.94" y="-265.807" style="font-style:normal;font-variant:normal;font-weight:400;font-stretch:normal;font-size:11.28888893px;line-height:100%;font-family:&quot;Arial Black&quot;;-inkscape-font-specification:&quot;Arial Black, Normal&quot;;font-variant-ligatures:normal;font-variant-caps:normal;font-variant-numeric:normal;font-feature-settings:normal;text-align:center;letter-spacing:0;word-spacing:0;writing-mode:lr-tb;text-anchor:middle;fill:#a9a9a9;fill-opacity:1;stroke:none;stroke-width:.29507166px;stroke-linecap:butt;stroke-linejoin:miter;stroke-opacity:1" transform="rotate(-89.485 -126.596 -409.507)"><tspan x="-606.94" y="-265.807">suppliers</tspan></text><g style="stroke-width:3.02774787"><path d="m-206.673 318.47-19.165 13.325c-.55.382-.897.996-.897 1.665v18.24c0 .675.333 1.307.89 1.688l19.186 13.096c.7.479 1.623.474 2.32-.01l19.184-13.344c.55-.382.878-1.009.878-1.678v-18.239c0-.676-.335-1.308-.894-1.69l-19.184-13.063a2.044 2.044 0 0 0-2.318.01zm-44.512.113-19.166 13.326c-.549.382-.897.995-.897 1.664v18.24c0 .674.334 1.307.892 1.687l19.185 13.097c.7.478 1.623.474 2.32-.01l19.185-13.345a2.045 2.045 0 0 0 .876-1.678v-18.238c0-.676-.334-1.309-.893-1.69l-19.185-13.064a2.044 2.044 0 0 0-2.317.011z" style="opacity:.2;stroke-width:.2002729" transform="matrix(.3683 -.0058 .0058 .3683 147.325 -68.323)"/><path d="m-207.695 318.13-19.165 13.324c-.55.383-.897.996-.897 1.666v18.238c0 .675.333 1.308.891 1.687l19.186 13.098c.7.478 1.623.474 2.32-.01l19.184-13.345a2.045 2.045 0 0 0 .877-1.678v-18.238c0-.677-.335-1.309-.893-1.69l-19.186-13.064a2.043 2.043 0 0 0-2.317.011zm-44.512.112-19.166 13.326c-.55.382-.897.995-.897 1.664v18.238c0 .676.334 1.308.891 1.688l19.185 13.097c.7.479 1.624.474 2.32-.01l19.185-13.344c.55-.382.877-1.009.877-1.678v-18.238c0-.676-.335-1.308-.894-1.69l-19.184-13.064a2.044 2.044 0 0 0-2.317.011z" style="opacity:.2;stroke-width:.2002729" transform="matrix(.3683 -.0058 .0058 .3683 147.325 -68.323)"/><path d="m-208.376 318.13-19.166 13.324c-.548.383-.896.996-.896 1.666v18.238c0 .675.334 1.308.891 1.687l19.185 13.098c.7.478 1.624.474 2.32-.01l19.185-13.345a2.045 2.045 0 0 0 .877-1.678v-18.238c0-.677-.334-1.309-.894-1.69l-19.185-13.064a2.044 2.044 0 0 0-2.317.011z" style="fill:#fff;stroke-width:.2002729" transform="matrix(.3683 -.0058 .0058 .3683 147.325 -68.323)"/><path d="m-208.376 318.13-19.166 13.324c-.548.383-.896.996-.896 1.666v18.238c0 .675.334 1.308.891 1.687l19.185 13.098c.7.478 1.624.474 2.32-.01l19.185-13.345a2.045 2.045 0 0 0 .877-1.678v-18.238c0-.677-.334-1.309-.894-1.69l-19.185-13.064a2.044 2.044 0 0 0-2.317.011z" style="fill:url(#g);stroke-width:.2002729" transform="matrix(.3683 -.0058 .0058 .3683 147.325 -68.323)"/><g style="stroke-width:.40388584"><path d="m171.166 62.027 38.689 26.347-38.689 26.911-38.689-26.358z" style="fill:#fff;stroke-width:.40388584" transform="matrix(.18262 -.00287 .00287 .18262 41.428 39.825)"/></g><g style="stroke-width:.40388584"><path d="m171.166 62.027 38.689 26.347-38.689 26.911-38.689-26.358z" style="fill:url(#h);stroke-width:.40388584" transform="matrix(.18262 -.00287 .00287 .18262 41.428 39.825)"/></g><g style="stroke-width:.40388584"><path d="m209.855 88.374-38.689 26.911v36.78l38.689-26.91z" style="fill:#ff6d00;stroke-width:.40388584" transform="matrix(.18262 -.00287 .00287 .18262 41.428 39.825)"/></g><g style="stroke-width:.40388584"><path d="m132.477 88.873 38.695 26.412-.006 36.78-38.689-26.411z" style="fill:#ffa700;stroke-width:.40388584" transform="matrix(.18262 -.00287 .00287 .18262 41.428 39.825)"/></g><path d="m-229.156 345.259-19.166 13.325c-.55.383-.896.996-.896 1.665v18.238c0 .675.333 1.308.891 1.688l19.185 13.097c.7.478 1.623.475 2.32-.01l19.184-13.345a2.045 2.045 0 0 0 .878-1.677V360c0-.675-.336-1.308-.894-1.689l-19.185-13.064a2.044 2.044 0 0 0-2.317.01z" style="opacity:.2;stroke-width:.2002729" transform="matrix(.3683 -.0058 .0058 .3683 147.325 -68.323)"/><path d="m-252.889 318.242-19.165 13.326c-.55.382-.897.995-.897 1.664v18.238c0 .676.333 1.308.892 1.688l19.185 13.097c.7.479 1.623.474 2.319-.01l19.185-13.344a2.045 2.045 0 0 0 .877-1.678v-18.238c0-.676-.335-1.308-.894-1.69l-19.185-13.064a2.044 2.044 0 0 0-2.317.011z" style="fill:url(#i);stroke-width:.2002729" transform="matrix(.3683 -.0058 .0058 .3683 147.325 -68.323)"/><g style="stroke-width:.40388584"><path d="m81.399 62.256 38.69 26.347-38.69 26.911-38.691-26.358z" style="fill:#fff;stroke-width:.40388584" transform="matrix(.18262 -.00287 .00287 .18262 41.428 39.825)"/></g><g style="stroke-width:.40388584"><path d="m81.399 62.256 38.69 26.347-38.69 26.911-38.691-26.358z" style="fill:url(#j);stroke-width:.40388584" transform="matrix(.18262 -.00287 .00287 .18262 41.428 39.825)"/></g><path d="m-230.178 344.918-19.166 13.325c-.55.382-.897.996-.897 1.665v18.239c0 .674.334 1.307.892 1.687l19.185 13.097c.7.478 1.623.474 2.32-.01l19.184-13.344c.549-.383.877-1.01.877-1.678V359.66c0-.677-.335-1.309-.893-1.69l-19.185-13.063a2.043 2.043 0 0 0-2.317.011z" style="opacity:.2;stroke-width:.2002729" transform="matrix(.3683 -.0058 .0058 .3683 147.325 -68.323)"/><g style="stroke-width:.40388584"><path d="m120.089 88.603-38.69 26.911v36.781l38.69-26.911z" style="fill:#cf0000;stroke-width:.40388584" transform="matrix(.18262 -.00287 .00287 .18262 41.428 39.825)"/></g><g style="stroke-width:.40388584"><path d="m42.708 89.102 38.696 26.412-.005 36.781-38.691-26.413z" style="fill:red;stroke-width:.40388584" transform="matrix(.18262 -.00287 .00287 .18262 41.428 39.825)"/></g><path d="m-230.86 344.918-19.165 13.325c-.55.382-.897.996-.897 1.665v18.239c0 .674.334 1.307.891 1.687l19.185 13.097c.7.478 1.623.474 2.32-.01l19.186-13.344c.549-.383.876-1.01.876-1.678V359.66c0-.677-.334-1.309-.894-1.69l-19.185-13.063a2.044 2.044 0 0 0-2.317.011z" style="fill:url(#k);stroke-width:.2002729" transform="matrix(.3683 -.0058 .0058 .3683 147.325 -68.323)"/><path d="M87.134 130.093v36.781l38.691 26.412 38.691-26.911v-36.781l-38.691-26.347-38.652 26.873z" style="fill:#6c3;stroke-width:.40388584" transform="matrix(.18262 -.00287 .00287 .18262 41.465 42.163)"/><g style="stroke-width:.40388584"><path d="m87.134 130.146 38.691-26.899 38.691 26.347-38.691 26.91z" style="fill:#fff;stroke-width:.40388584" transform="matrix(.18262 -.00287 .00287 .18262 41.465 42.163)"/></g><g style="stroke-width:.40388584"><path d="m87.134 130.146 38.691-26.899 38.691 26.347-38.691 26.91z" style="fill:url(#l);stroke-width:.40388584" transform="matrix(.18262 -.00287 .00287 .18262 41.465 42.163)"/></g><g style="stroke-width:.40388584"><path d="M164.516 166.375v-36.781l-38.691 26.91v36.782z" style="fill:#093;stroke-width:.40388584" transform="matrix(.18262 -.00287 .00287 .18262 41.465 42.163)"/></g><g style="stroke-width:.40388584"><path d="M87.134 166.874v-36.781l38.697 26.411-.006 36.782z" style="fill:#6c3;stroke-width:.40388584" transform="matrix(.18262 -.00287 .00287 .18262 41.465 42.163)"/></g></g><text xml:space="preserve" x="-236.189" y="611.433" style="font-style:normal;font-variant:normal;font-weight:400;font-stretch:normal;font-size:4.23333311px;line-height:100%;font-family:&quot;Arial Black&quot;;-inkscape-font-specification:&quot;Arial Black, Normal&quot;;font-variant-ligatures:normal;font-variant-caps:normal;font-variant-numeric:normal;font-feature-settings:normal;text-align:start;letter-spacing:0;word-spacing:0;writing-mode:lr-tb;text-anchor:start;fill:#228b22;fill-opacity:1;stroke:none;stroke-width:.29507166px;stroke-linecap:butt;stroke-linejoin:miter;stroke-opacity:1" transform="rotate(-.902 -33690.05 -18314.787)"><tspan x="-236.189" y="611.433">synset</tspan></text><text xml:space="preserve" x="-235.426" y="615.619" style="font-style:normal;font-variant:normal;font-weight:400;font-stretch:normal;font-size:4.23333311px;line-height:100%;font-family:&quot;Arial Black&quot;;-inkscape-font-specification:&quot;Arial Black, Normal&quot;;font-variant-ligatures:normal;font-variant-caps:normal;font-variant-numeric:normal;font-feature-settings:normal;text-align:start;letter-spacing:0;word-spacing:0;writing-mode:lr-tb;text-anchor:start;fill:red;fill-opacity:1;stroke:none;stroke-width:.29507166px;stroke-linecap:butt;stroke-linejoin:miter;stroke-opacity:1" transform="rotate(-.902 -33690.05 -18314.787)"><tspan x="-235.426" y="615.619">sense</tspan></text><text xml:space="preserve" x="-236.513" y="620.09" style="font-style:normal;font-variant:normal;font-weight:400;font-stretch:normal;font-size:4.23333311px;line-height:100%;font-family:&quot;Arial Black&quot;;-inkscape-font-specification:&quot;Arial Black, Normal&quot;;font-variant-ligatures:normal;font-variant-caps:normal;font-variant-numeric:normal;font-feature-settings:normal;text-align:start;letter-spacing:0;word-spacing:0;writing-mode:lr-tb;text-anchor:start;fill:#696969;fill-opacity:1;stroke:none;stroke-width:.29507166px;stroke-linecap:butt;stroke-linejoin:miter;stroke-opacity:1" transform="rotate(-.902 -33690.05 -18314.787)"><tspan x="-236.513" y="620.09">lemma</tspan></text><text xml:space="preserve" x="-237.696" y="624.341" style="font-style:normal;font-variant:normal;font-weight:400;font-stretch:normal;font-size:4.23333311px;line-height:100%;font-family:&quot;Arial Black&quot;;-inkscape-font-specification:&quot;Arial Black, Normal&quot;;font-variant-ligatures:normal;font-variant-caps:normal;font-variant-numeric:normal;font-feature-settings:normal;text-align:start;letter-spacing:0;word-spacing:0;writing-mode:lr-tb;text-anchor:start;fill:#d2691e;fill-opacity:1;stroke:none;stroke-width:.29507166px;stroke-linecap:butt;stroke-linejoin:miter;stroke-opacity:1" transform="rotate(-.902 -33690.05 -18314.787)"><tspan x="-237.696" y="624.341">relation</tspan></text><g style="stroke-width:3.02774787"><g style="stroke-width:3.02774787"><path d="M-100.334 134.128a3.94 3.94 0 0 0-3.935 3.935v46.302a3.94 3.94 0 0 0 3.935 3.936h40.746a3.94 3.94 0 0 0 3.936-3.936v-46.302a3.94 3.94 0 0 0-3.936-3.935z" style="opacity:.2;stroke-width:.70095515" transform="rotate(-.925 3597.174 -5644.815)scale(.33683)"/><path d="M-100.797 133.665a3.94 3.94 0 0 0-3.935 3.935v46.302a3.94 3.94 0 0 0 3.935 3.936h40.746a3.94 3.94 0 0 0 3.936-3.936V137.6a3.94 3.94 0 0 0-3.936-3.935z" style="opacity:.2;stroke-width:.70095515" transform="rotate(-.925 3597.174 -5644.815)scale(.33683)"/><path d="M-101.26 133.433a3.94 3.94 0 0 0-3.935 3.936v46.302a3.94 3.94 0 0 0 3.935 3.936h40.746a3.94 3.94 0 0 0 3.936-3.936v-46.302a3.94 3.94 0 0 0-3.936-3.936z" style="opacity:.2;stroke-width:.70095515" transform="rotate(-.925 3597.174 -5644.815)scale(.33683)"/><path d="M-101.028 133.086a3.94 3.94 0 0 0-3.936 3.936v46.302a3.94 3.94 0 0 0 3.936 3.935h40.746a3.94 3.94 0 0 0 3.935-3.935v-46.302a3.94 3.94 0 0 0-3.935-3.936z" style="fill:url(#m);stroke-width:.70095515" transform="rotate(-.925 3597.174 -5644.815)scale(.33683)"/><path d="M-104.038 183.324a2.778 2.778 0 0 0 2.778 2.778h40.746a2.778 2.778 0 0 0 2.778-2.778v-46.302a2.778 2.778 0 0 0-2.778-2.779h-40.746a2.778 2.778 0 0 0-2.778 2.779z" style="fill:#fff;stroke-width:.70095515" transform="rotate(-.925 3597.174 -5644.815)scale(.33683)"/><path d="M-110.52 130.539h59.267v59.267h-59.267z" style="fill:none;stroke-width:.70095515" transform="rotate(-.925 3597.174 -5644.815)scale(.33683)"/><path d="M11.781 19.5c-.179 0-.27.018-.304.027-.034.01-.014-.001-.043.022-.006.004-.109.1-.211.396L9.803 24.5H37.12l-1.43-4.344c-.191-.476-.262-.517-.314-.552-.07-.048-.143-.104-.565-.104Z" style="color:#000;display:block;overflow:visible;visibility:visible;opacity:.15;fill:none;stroke:url(#n);stroke-width:3.02775049;stroke-linecap:butt;stroke-linejoin:miter;stroke-miterlimit:4;stroke-dashoffset:0;stroke-opacity:1;marker:none" transform="rotate(-.941 6414.704 -3298.314)scale(.07798)"/><path d="M-104.038 183.324a2.778 2.778 0 0 0 2.778 2.778h40.746a2.778 2.778 0 0 0 2.778-2.778v-46.302a2.778 2.778 0 0 0-2.778-2.779h-40.746a2.778 2.778 0 0 0-2.778 2.779z" style="fill:#fff;stroke-width:.70095515" transform="rotate(-.925 3597.174 -5644.815)scale(.33683)"/></g><g style="stroke-width:3.02774787" transform="rotate(-.925 2624.52 -4799.396)scale(.33683)"><rect width="38.046" height="22.207" x="-61.419" y="-227.973" rx="3.593" ry="4.043" style="fill:#d45500;fill-opacity:1;stroke:none;stroke-width:.37727916" transform="scale(1 -1)"/><text xml:space="preserve" x="-55.522" y="222.152" style="font-style:normal;font-variant:normal;font-weight:400;font-stretch:condensed;font-size:13.86738205px;line-height:100%;font-family:Impact;-inkscape-font-specification:&quot;Impact, Condensed&quot;;font-variant-ligatures:normal;font-variant-caps:normal;font-variant-numeric:normal;font-feature-settings:normal;text-align:start;letter-spacing:0;word-spacing:0;writing-mode:lr-tb;text-anchor:start;fill:#fff;fill-opacity:1;stroke:none;stroke-width:.53509021px;stroke-linecap:butt;stroke-linejoin:miter;stroke-opacity:1"><tspan x="-55.522" y="222.152">JAVA</tspan></text></g></g><path d="M-364.818 635.254s-4.568 2.659 3.255 3.556c9.478 1.082 14.322.926 24.764-1.048 0 0 2.75 1.721 6.586 3.212-23.416 10.032-52.995-.582-34.605-5.72zm-2.862-13.094s-5.125 3.794 2.704 4.603c10.126 1.045 18.12 1.131 31.96-1.532 0 0 1.909 1.94 4.917 3-28.307 8.28-59.835.651-39.582-6.07z" style="clip-rule:evenodd;fill:#0074bd;fill-rule:evenodd;stroke-width:.26458332" transform="rotate(-.92 4335.747 -5296.653)scale(.06196)"/><path d="M-343.56 599.946c5.772 6.645-1.514 12.62-1.514 12.62s14.65-7.561 7.923-17.034c-6.285-8.83-11.103-13.216 14.981-28.343 0 0-40.945 10.223-21.39 32.757z" style="clip-rule:evenodd;fill:#d45500;fill-rule:evenodd;stroke-width:.26458332" transform="rotate(-.92 4335.747 -5296.653)scale(.06196)"/><path d="M-312.591 644.94s3.381 2.788-3.725 4.944c-13.513 4.092-56.251 5.327-68.122.163-4.265-1.857 3.736-4.431 6.253-4.975 2.625-.568 4.123-.464 4.123-.464-4.745-3.342-30.674 6.563-13.168 9.404 47.738 7.738 87.02-3.485 74.639-9.072zm-50.029-36.348s-21.736 5.164-7.697 7.041c5.93.794 17.744.611 28.757-.313 8.997-.755 18.026-2.37 18.026-2.37s-3.17 1.36-5.465 2.926c-22.078 5.807-64.72 3.103-52.442-2.834 10.378-5.021 18.822-4.45 18.822-4.45zm38.996 21.795c22.442-11.658 12.065-22.863 4.822-21.354-1.771.37-2.566.69-2.566.69s.66-1.034 1.917-1.479c14.328-5.035 25.345 14.856-4.621 22.733 0 0 .344-.312.448-.59z" style="clip-rule:evenodd;fill:#0074bd;fill-rule:evenodd;stroke-width:.26458332" transform="rotate(-.92 4335.747 -5296.653)scale(.06196)"/><path d="M-337.15 542.758s12.425 12.432-11.79 31.545c-19.418 15.338-4.427 24.08-.007 34.073-11.336-10.227-19.65-19.231-14.074-27.61 8.19-12.298 30.882-18.262 25.87-38.008z" style="clip-rule:evenodd;fill:#d45500;fill-rule:evenodd;stroke-width:.26458332" transform="rotate(-.92 4335.747 -5296.653)scale(.06196)"/><path d="M-360.413 661.989c21.536 1.376 54.617-.767 55.4-10.958 0 0-1.505 3.863-17.8 6.929-18.384 3.46-41.063 3.058-54.509.838 0 0 2.755 2.28 16.909 3.19z" style="clip-rule:evenodd;fill:#0074bd;fill-rule:evenodd;stroke-width:.26458332" transform="rotate(-.92 4335.747 -5296.653)scale(.06196)"/><g style="stroke-width:3.02774787"><g style="stroke-width:3.02774787"><path d="M-100.334 134.128a3.94 3.94 0 0 0-3.935 3.935v46.302a3.94 3.94 0 0 0 3.935 3.936h40.746a3.94 3.94 0 0 0 3.936-3.936v-46.302a3.94 3.94 0 0 0-3.936-3.935z" style="opacity:.2;stroke-width:.70095515" transform="rotate(-.925 3750.473 -5789.18)scale(.33683)"/><path d="M-100.797 133.665a3.94 3.94 0 0 0-3.935 3.935v46.302a3.94 3.94 0 0 0 3.935 3.936h40.746a3.94 3.94 0 0 0 3.936-3.936V137.6a3.94 3.94 0 0 0-3.936-3.935z" style="opacity:.2;stroke-width:.70095515" transform="rotate(-.925 3750.473 -5789.18)scale(.33683)"/><path d="M-101.26 133.433a3.94 3.94 0 0 0-3.935 3.936v46.302a3.94 3.94 0 0 0 3.935 3.936h40.746a3.94 3.94 0 0 0 3.936-3.936v-46.302a3.94 3.94 0 0 0-3.936-3.936z" style="opacity:.2;stroke-width:.70095515" transform="rotate(-.925 3750.473 -5789.18)scale(.33683)"/><path d="M-101.028 133.086a3.94 3.94 0 0 0-3.936 3.936v46.302a3.94 3.94 0 0 0 3.936 3.935h40.746a3.94 3.94 0 0 0 3.935-3.935v-46.302a3.94 3.94 0 0 0-3.935-3.936z" style="fill:url(#o);stroke-width:.70095515" transform="rotate(-.925 3750.473 -5789.18)scale(.33683)"/><path d="M-104.038 183.324a2.778 2.778 0 0 0 2.778 2.778h40.746a2.778 2.778 0 0 0 2.778-2.778v-46.302a2.778 2.778 0 0 0-2.778-2.779h-40.746a2.778 2.778 0 0 0-2.778 2.779z" style="fill:#fff;stroke-width:.70095515" transform="rotate(-.925 3750.473 -5789.18)scale(.33683)"/><path d="M-110.52 130.539h59.267v59.267h-59.267z" style="fill:none;stroke-width:.70095515" transform="rotate(-.925 3750.473 -5789.18)scale(.33683)"/><path d="M11.781 19.5c-.179 0-.27.018-.304.027-.034.01-.014-.001-.043.022-.006.004-.109.1-.211.396L9.803 24.5H37.12l-1.43-4.344c-.191-.476-.262-.517-.314-.552-.07-.048-.143-.104-.565-.104Z" style="color:#000;display:block;overflow:visible;visibility:visible;opacity:.15;fill:none;stroke:url(#p);stroke-width:3.02775049;stroke-linecap:butt;stroke-linejoin:miter;stroke-miterlimit:4;stroke-dashoffset:0;stroke-opacity:1;marker:none" transform="rotate(-.941 6568.044 -3442.636)scale(.07798)"/><path d="M-104.038 183.324a2.778 2.778 0 0 0 2.778 2.778h40.746a2.778 2.778 0 0 0 2.778-2.778v-46.302a2.778 2.778 0 0 0-2.778-2.779h-40.746a2.778 2.778 0 0 0-2.778 2.779z" style="fill:#fff;stroke-width:.70095515" transform="rotate(-.925 3750.473 -5789.18)scale(.33683)"/></g><g style="stroke-width:3.02774787" transform="rotate(-.925 2777.819 -4943.761)scale(.33683)"><rect width="38.046" height="22.207" x="-61.419" y="-227.973" rx="3.593" ry="4.043" style="fill:#d45500;fill-opacity:1;stroke:none;stroke-width:.37727916" transform="scale(1 -1)"/><text xml:space="preserve" x="-55.522" y="222.152" style="font-style:normal;font-variant:normal;font-weight:400;font-stretch:condensed;font-size:13.86738205px;line-height:100%;font-family:Impact;-inkscape-font-specification:&quot;Impact, Condensed&quot;;font-variant-ligatures:normal;font-variant-caps:normal;font-variant-numeric:normal;font-feature-settings:normal;text-align:start;letter-spacing:0;word-spacing:0;writing-mode:lr-tb;text-anchor:start;fill:#fff;fill-opacity:1;stroke:none;stroke-width:.53509021px;stroke-linecap:butt;stroke-linejoin:miter;stroke-opacity:1"><tspan x="-55.522" y="222.152">JAVA</tspan></text></g></g><path d="M-364.818 635.254s-4.568 2.659 3.255 3.556c9.478 1.082 14.322.926 24.764-1.048 0 0 2.75 1.721 6.586 3.212-23.416 10.032-52.995-.582-34.605-5.72zm-2.862-13.094s-5.125 3.794 2.704 4.603c10.126 1.045 18.12 1.131 31.96-1.532 0 0 1.909 1.94 4.917 3-28.307 8.28-59.835.651-39.582-6.07z" style="clip-rule:evenodd;fill:#0074bd;fill-rule:evenodd;stroke-width:.26458332" transform="rotate(-.92 4489.03 -5441.034)scale(.06196)"/><path d="M-343.56 599.946c5.772 6.645-1.514 12.62-1.514 12.62s14.65-7.561 7.923-17.034c-6.285-8.83-11.103-13.216 14.981-28.343 0 0-40.945 10.223-21.39 32.757z" style="clip-rule:evenodd;fill:#d45500;fill-rule:evenodd;stroke-width:.26458332" transform="rotate(-.92 4489.03 -5441.034)scale(.06196)"/><path d="M-312.591 644.94s3.381 2.788-3.725 4.944c-13.513 4.092-56.251 5.327-68.122.163-4.265-1.857 3.736-4.431 6.253-4.975 2.625-.568 4.123-.464 4.123-.464-4.745-3.342-30.674 6.563-13.168 9.404 47.738 7.738 87.02-3.485 74.639-9.072zm-50.029-36.348s-21.736 5.164-7.697 7.041c5.93.794 17.744.611 28.757-.313 8.997-.755 18.026-2.37 18.026-2.37s-3.17 1.36-5.465 2.926c-22.078 5.807-64.72 3.103-52.442-2.834 10.378-5.021 18.822-4.45 18.822-4.45zm38.996 21.795c22.442-11.658 12.065-22.863 4.822-21.354-1.771.37-2.566.69-2.566.69s.66-1.034 1.917-1.479c14.328-5.035 25.345 14.856-4.621 22.733 0 0 .344-.312.448-.59z" style="clip-rule:evenodd;fill:#0074bd;fill-rule:evenodd;stroke-width:.26458332" transform="rotate(-.92 4489.03 -5441.034)scale(.06196)"/><path d="M-337.15 542.758s12.425 12.432-11.79 31.545c-19.418 15.338-4.427 24.08-.007 34.073-11.336-10.227-19.65-19.231-14.074-27.61 8.19-12.298 30.882-18.262 25.87-38.008z" style="clip-rule:evenodd;fill:#d45500;fill-rule:evenodd;stroke-width:.26458332" transform="rotate(-.92 4489.03 -5441.034)scale(.06196)"/><path d="M-360.413 661.989c21.536 1.376 54.617-.767 55.4-10.958 0 0-1.505 3.863-17.8 6.929-18.384 3.46-41.063 3.058-54.509.838 0 0 2.755 2.28 16.909 3.19z" style="clip-rule:evenodd;fill:#0074bd;fill-rule:evenodd;stroke-width:.26458332" transform="rotate(-.92 4489.03 -5441.034)scale(.06196)"/><g style="stroke-width:3.02774787"><g style="stroke-width:3.02774787"><path d="M-100.334 134.128a3.94 3.94 0 0 0-3.935 3.935v46.302a3.94 3.94 0 0 0 3.935 3.936h40.746a3.94 3.94 0 0 0 3.936-3.936v-46.302a3.94 3.94 0 0 0-3.936-3.935z" style="opacity:.2;stroke-width:.70095515" transform="rotate(-.925 3908.342 -5922.987)scale(.33683)"/><path d="M-100.797 133.665a3.94 3.94 0 0 0-3.935 3.935v46.302a3.94 3.94 0 0 0 3.935 3.936h40.746a3.94 3.94 0 0 0 3.936-3.936V137.6a3.94 3.94 0 0 0-3.936-3.935z" style="opacity:.2;stroke-width:.70095515" transform="rotate(-.925 3908.342 -5922.987)scale(.33683)"/><path d="M-101.26 133.433a3.94 3.94 0 0 0-3.935 3.936v46.302a3.94 3.94 0 0 0 3.935 3.936h40.746a3.94 3.94 0 0 0 3.936-3.936v-46.302a3.94 3.94 0 0 0-3.936-3.936z" style="opacity:.2;stroke-width:.70095515" transform="rotate(-.925 3908.342 -5922.987)scale(.33683)"/><path d="M-101.028 133.086a3.94 3.94 0 0 0-3.936 3.936v46.302a3.94 3.94 0 0 0 3.936 3.935h40.746a3.94 3.94 0 0 0 3.935-3.935v-46.302a3.94 3.94 0 0 0-3.935-3.936z" style="fill:url(#q);stroke-width:.70095515" transform="rotate(-.925 3908.342 -5922.987)scale(.33683)"/><path d="M-104.038 183.324a2.778 2.778 0 0 0 2.778 2.778h40.746a2.778 2.778 0 0 0 2.778-2.778v-46.302a2.778 2.778 0 0 0-2.778-2.779h-40.746a2.778 2.778 0 0 0-2.778 2.779z" style="fill:#fff;stroke-width:.70095515" transform="rotate(-.925 3908.342 -5922.987)scale(.33683)"/><path d="M-110.52 130.539h59.267v59.267h-59.267z" style="fill:none;stroke-width:.70095515" transform="rotate(-.925 3908.342 -5922.987)scale(.33683)"/><path d="M11.781 19.5c-.179 0-.27.018-.304.027-.034.01-.014-.001-.043.022-.006.004-.109.1-.211.396L9.803 24.5H37.12l-1.43-4.344c-.191-.476-.262-.517-.314-.552-.07-.048-.143-.104-.565-.104Z" style="color:#000;display:block;overflow:visible;visibility:visible;opacity:.15;fill:none;stroke:url(#r);stroke-width:3.02775049;stroke-linecap:butt;stroke-linejoin:miter;stroke-miterlimit:4;stroke-dashoffset:0;stroke-opacity:1;marker:none" transform="rotate(-.941 6725.952 -3576.399)scale(.07798)"/><path d="M-104.038 183.324a2.778 2.778 0 0 0 2.778 2.778h40.746a2.778 2.778 0 0 0 2.778-2.778v-46.302a2.778 2.778 0 0 0-2.778-2.779h-40.746a2.778 2.778 0 0 0-2.778 2.779z" style="fill:#fff;stroke-width:.70095515" transform="rotate(-.925 3908.342 -5922.987)scale(.33683)"/></g><g style="stroke-width:3.02774787" transform="rotate(-.925 2935.688 -5077.569)scale(.33683)"><rect width="38.046" height="22.207" x="-61.419" y="-227.973" rx="3.593" ry="4.043" style="fill:#d45500;fill-opacity:1;stroke:none;stroke-width:.37727916" transform="scale(1 -1)"/><text xml:space="preserve" x="-55.522" y="222.152" style="font-style:normal;font-variant:normal;font-weight:400;font-stretch:condensed;font-size:13.86738205px;line-height:100%;font-family:Impact;-inkscape-font-specification:&quot;Impact, Condensed&quot;;font-variant-ligatures:normal;font-variant-caps:normal;font-variant-numeric:normal;font-feature-settings:normal;text-align:start;letter-spacing:0;word-spacing:0;writing-mode:lr-tb;text-anchor:start;fill:#fff;fill-opacity:1;stroke:none;stroke-width:.53509021px;stroke-linecap:butt;stroke-linejoin:miter;stroke-opacity:1"><tspan x="-55.522" y="222.152">JAVA</tspan></text></g></g><path d="M-364.818 635.254s-4.568 2.659 3.255 3.556c9.478 1.082 14.322.926 24.764-1.048 0 0 2.75 1.721 6.586 3.212-23.416 10.032-52.995-.582-34.605-5.72zm-2.862-13.094s-5.125 3.794 2.704 4.603c10.126 1.045 18.12 1.131 31.96-1.532 0 0 1.909 1.94 4.917 3-28.307 8.28-59.835.651-39.582-6.07z" style="clip-rule:evenodd;fill:#0074bd;fill-rule:evenodd;stroke-width:.26458332" transform="rotate(-.92 4646.885 -5574.858)scale(.06196)"/><path d="M-343.56 599.946c5.772 6.645-1.514 12.62-1.514 12.62s14.65-7.561 7.923-17.034c-6.285-8.83-11.103-13.216 14.981-28.343 0 0-40.945 10.223-21.39 32.757z" style="clip-rule:evenodd;fill:#d45500;fill-rule:evenodd;stroke-width:.26458332" transform="rotate(-.92 4646.885 -5574.858)scale(.06196)"/><path d="M-312.591 644.94s3.381 2.788-3.725 4.944c-13.513 4.092-56.251 5.327-68.122.163-4.265-1.857 3.736-4.431 6.253-4.975 2.625-.568 4.123-.464 4.123-.464-4.745-3.342-30.674 6.563-13.168 9.404 47.738 7.738 87.02-3.485 74.639-9.072zm-50.029-36.348s-21.736 5.164-7.697 7.041c5.93.794 17.744.611 28.757-.313 8.997-.755 18.026-2.37 18.026-2.37s-3.17 1.36-5.465 2.926c-22.078 5.807-64.72 3.103-52.442-2.834 10.378-5.021 18.822-4.45 18.822-4.45zm38.996 21.795c22.442-11.658 12.065-22.863 4.822-21.354-1.771.37-2.566.69-2.566.69s.66-1.034 1.917-1.479c14.328-5.035 25.345 14.856-4.621 22.733 0 0 .344-.312.448-.59z" style="clip-rule:evenodd;fill:#0074bd;fill-rule:evenodd;stroke-width:.26458332" transform="rotate(-.92 4646.885 -5574.858)scale(.06196)"/><path d="M-337.15 542.758s12.425 12.432-11.79 31.545c-19.418 15.338-4.427 24.08-.007 34.073-11.336-10.227-19.65-19.231-14.074-27.61 8.19-12.298 30.882-18.262 25.87-38.008z" style="clip-rule:evenodd;fill:#d45500;fill-rule:evenodd;stroke-width:.26458332" transform="rotate(-.92 4646.885 -5574.858)scale(.06196)"/><path d="M-360.413 661.989c21.536 1.376 54.617-.767 55.4-10.958 0 0-1.505 3.863-17.8 6.929-18.384 3.46-41.063 3.058-54.509.838 0 0 2.755 2.28 16.909 3.19z" style="clip-rule:evenodd;fill:#0074bd;fill-rule:evenodd;stroke-width:.26458332" transform="rotate(-.92 4646.885 -5574.858)scale(.06196)"/><text xml:space="preserve" x="604.983" y="157.541" style="font-style:normal;font-variant:normal;font-weight:400;font-stretch:normal;font-size:11.28888893px;line-height:100%;font-family:&quot;Arial Black&quot;;-inkscape-font-specification:&quot;Arial Black, Normal&quot;;font-variant-ligatures:normal;font-variant-caps:normal;font-variant-numeric:normal;font-feature-settings:normal;text-align:center;letter-spacing:0;word-spacing:0;writing-mode:lr-tb;text-anchor:middle;fill:#a9a9a9;fill-opacity:1;stroke:none;stroke-width:.29507166px;stroke-linecap:butt;stroke-linejoin:miter;stroke-opacity:1" transform="rotate(90.481 405.999 -125.38)"><tspan x="604.983" y="157.541">consumers</tspan></text><path d="m-267.323 602.731 28.896-.151" style="fill:teal;fill-opacity:1;fill-rule:evenodd;stroke:teal;stroke-width:1;stroke-linecap:butt;stroke-linejoin:miter;stroke-miterlimit:4;stroke-dasharray:none;stroke-opacity:1;marker-end:url(#s)" transform="translate(284.032 -532.418)"/><text xml:space="preserve" x="-262.632" y="599.522" style="font-style:normal;font-variant:normal;font-weight:400;font-stretch:normal;font-size:3.93417788px;line-height:100%;font-family:&quot;Arial Black&quot;;-inkscape-font-specification:&quot;Arial Black, Normal&quot;;font-variant-ligatures:normal;font-variant-caps:normal;font-variant-numeric:normal;font-feature-settings:normal;text-align:start;letter-spacing:0;word-spacing:0;writing-mode:lr-tb;text-anchor:start;fill:teal;fill-opacity:1;stroke:none;stroke-width:.29507166px;stroke-linecap:butt;stroke-linejoin:miter;stroke-opacity:1" transform="rotate(-.329 -92579.28 -49730.747)"><tspan x="-262.632" y="599.522">read</tspan></text><path d="m-202.414 602.733 34.717-.151" style="fill:#a00;fill-opacity:1;fill-rule:evenodd;stroke:#a00;stroke-width:1;stroke-linecap:butt;stroke-linejoin:miter;stroke-miterlimit:4;stroke-dasharray:none;stroke-opacity:1;marker-end:url(#t)" transform="translate(284.032 -532.418)"/><text xml:space="preserve" x="-194.37" y="599.925" style="font-style:normal;font-variant:normal;font-weight:400;font-stretch:normal;font-size:3.93417788px;line-height:100%;font-family:&quot;Arial Black&quot;;-inkscape-font-specification:&quot;Arial Black, Normal&quot;;font-variant-ligatures:normal;font-variant-caps:normal;font-variant-numeric:normal;font-feature-settings:normal;text-align:start;letter-spacing:0;word-spacing:0;writing-mode:lr-tb;text-anchor:start;fill:maroon;fill-opacity:1;stroke:none;stroke-width:.29507166px;stroke-linecap:butt;stroke-linejoin:miter;stroke-opacity:1" transform="rotate(-.329 -92579.28 -49730.747)"><tspan x="-194.37" y="599.925">write</tspan></text><text xml:space="preserve" x="-223.583" y="545.739" style="font-style:normal;font-variant:normal;font-weight:400;font-stretch:normal;font-size:11.28888893px;line-height:100%;font-family:&quot;Arial Black&quot;;-inkscape-font-specification:&quot;Arial Black, Normal&quot;;font-variant-ligatures:normal;font-variant-caps:normal;font-variant-numeric:normal;font-feature-settings:normal;text-align:center;letter-spacing:0;word-spacing:0;writing-mode:lr-tb;text-anchor:middle;fill:#a9a9a9;fill-opacity:1;stroke:none;stroke-width:.29507166px;stroke-linecap:butt;stroke-linejoin:miter;stroke-opacity:1" transform="rotate(-.48 -63372.91 -34149.864)"><tspan x="-223.583" y="545.739">queriers</tspan></text><text xml:space="preserve" x="-220.752" y="566.082" style="font-style:normal;font-variant:normal;font-weight:400;font-stretch:normal;font-size:3.93417788px;line-height:100%;font-family:&quot;Arial Black&quot;;-inkscape-font-specification:&quot;Arial Black, Normal&quot;;font-variant-ligatures:normal;font-variant-caps:normal;font-variant-numeric:normal;font-feature-settings:normal;text-align:start;letter-spacing:0;word-spacing:0;writing-mode:lr-tb;text-anchor:start;fill:purple;fill-opacity:1;stroke:none;stroke-width:.29507166px;stroke-linecap:butt;stroke-linejoin:miter;stroke-opacity:1" transform="rotate(-.329 -92579.28 -49730.747)"><tspan x="-220.752" y="566.082">query</tspan></text></svg>